<svg id="Capa_1" enable-background="new 0 0 511.999 511.999" height="512" viewBox="0 0 511.999 511.999" width="512" xmlns="http://www.w3.org/2000/svg"><g><path d="m75.999 74.83h30v362.34h-30z" fill="#4a4992"/><path d="m405.999 74.83h30v362.34h-30z" fill="#383774"/><path d="m390.999 151.004h-270c-8.284 0-15 6.716-15 15s6.716 15 15 15h270c8.284 0 15-6.716 15-15s-6.716-15-15-15z" fill="#4a4992"/><path d="m390.999 151.004h-135.002v30h135.002c8.284 0 15-6.716 15-15s-6.716-15-15-15z" fill="#383774"/><path d="m330.99 372h-149.986c-8.284 0-15 6.716-15 15v49.999c0 8.284 6.716 15 15 15h149.986c8.284 0 15-6.716 15-15v-49.999c0-8.284-6.715-15-15-15z" fill="#cce6ff"/><path d="m330.99 372h-74.993v79.999h74.993c8.284 0 15-6.716 15-15v-49.999c0-8.284-6.715-15-15-15z" fill="#b3ccff"/><path d="m451.002 421.999h-390.005c-8.284 0-15 6.716-15 15v60c0 8.284 6.716 15 15 15h390.005c8.284 0 15-6.716 15-15v-60c0-8.284-6.716-15-15-15z" fill="#5bc5cf"/><path d="m451.002 421.999h-195.005v90h195.005c8.284 0 15-6.716 15-15v-60c0-8.284-6.716-15-15-15z" fill="#4891ab"/><path d="m360.993 391.999h-209.991c-8.284 0-15-6.716-15-15s6.716-15 15-15h209.991c8.284 0 15 6.716 15 15s-6.716 15-15 15z" fill="#e6f2ff"/><path d="m360.993 361.999h-104.996v30h104.996c8.284 0 15-6.716 15-15s-6.716-15-15-15z" fill="#cce6ff"/><path d="m451.002 0h-390.005c-8.284 0-15 6.716-15 15v60c0 8.284 6.716 15 15 15h390.005c8.284 0 15-6.716 15-15v-60c0-8.284-6.716-15-15-15z" fill="#5bc5cf"/><path d="m451.002 0h-195.005v90h195.005c8.284 0 15-6.716 15-15v-60c0-8.284-6.716-15-15-15z" fill="#4891ab"/><path d="m120.999 121.004h-60c-8.284 0-15 6.716-15 15v60c0 8.284 6.716 15 15 15h60c8.284 0 15-6.716 15-15v-60c0-8.284-6.716-15-15-15z" fill="#ffed6a"/><path d="m450.999 121.004h-60c-8.284 0-15 6.716-15 15v60c0 8.284 6.716 15 15 15h60c8.284 0 15-6.716 15-15v-60c0-8.284-6.716-15-15-15z" fill="#ffcb64"/><path d="m255.997 301.502c-8.284 0-15-6.716-15-15v-30.002c0-8.284 6.716-15 15-15s15 6.716 15 15v30.002c0 8.284-6.716 15-15 15z" fill="#ffa85f"/><path d="m255.997 241.499v60.002c8.284 0 15-6.716 15-15v-30.001c0-8.285-6.716-15.001-15-15.001z" fill="#ff8659"/><path d="m286 181.499h-60c-8.284 0-15 6.716-15 15v60c0 8.284 6.716 15 15 15h60c8.284 0 15-6.716 15-15v-60c0-8.284-6.716-15-15-15z" fill="#e6f2ff"/><path d="m286 181.499h-30.003v90h30.003c8.284 0 15-6.716 15-15v-60c0-8.284-6.716-15-15-15z" fill="#cce6ff"/><path d="m316.002 121.004h-120.005c-8.284 0-15 6.716-15 15v60c0 8.284 6.716 15 15 15h120.005c8.284 0 15-6.716 15-15v-60c0-8.284-6.716-15-15-15z" fill="#ffed6a"/><path d="m316.002 121.004h-60.005v90h60.005c8.284 0 15-6.716 15-15v-60c0-8.284-6.716-15-15-15z" fill="#ffcb64"/></g></svg>