<svg height="512pt" viewBox="0 -8 512 512" width="512pt" xmlns="http://www.w3.org/2000/svg"><path d="m474.425781 7.515625h-436.851562c-16.601563 0-30.058594 13.457031-30.058594 30.058594v250.488281h496.96875v-250.488281c0-16.601563-13.457031-30.058594-30.058594-30.058594zm0 0" fill="#40a2e7"/><path d="m356.195312 448.375h-200.390624c-11.066407 0-20.039063 8.972656-20.039063 20.039062v20.039063h240.46875v-20.039063c0-11.066406-8.972656-20.039062-20.039063-20.039062zm0 0" fill="#d7dee2"/><path d="m185.863281 378.238281h140.273438v70.136719h-140.273438zm0 0" fill="#d7dee2"/><path d="m7.515625 348.179688c0 16.601562 13.457031 30.058593 30.058594 30.058593h436.851562c16.601563 0 30.058594-13.457031 30.058594-30.058593v-60.117188h-496.96875zm0 0" fill="#d7dee2"/><path d="m185.863281 378.238281h140.273438v30.058594h-140.273438zm0 0" fill="#a3acb2"/><path d="m96.6875 218.328125v-142.308594l123.242188-68.503906 123.242187 68.503906v142.308594l-123.242187 69.734375zm0 0" fill="#1273b8"/><path d="m219.929688 254.773438-93.183594-53.800782v-107.597656l93.183594-53.796875 93.183593 53.796875v107.597656zm0 0" fill="#c9ef3f"/><path d="m240.96875 318.121094h30.0625v30.058594h-30.0625zm0 0" fill="#00ddc2"/><path d="m126.746094 93.375v107.597656l93.183594 53.800782v-107.597657zm0 0" fill="#fe9d58"/><path d="m474.425781 0h-261.941406v15.03125h261.941406c12.429688 0 22.542969 10.109375 22.542969 22.542969v183.785156h15.03125v-183.785156c0-20.71875-16.855469-37.574219-37.574219-37.574219zm0 0"/><path d="m496.96875 280.546875h-481.9375v-242.972656c0-12.433594 10.113281-22.542969 22.542969-22.542969h159.882812v-15.03125h-159.882812c-20.71875 0-37.574219 16.855469-37.574219 37.574219v310.605469c0 20.71875 16.855469 37.574218 37.574219 37.574218h87.886719v-15.03125h-87.886719c-12.429688 0-22.542969-10.113281-22.542969-22.542968v-52.601563h481.9375v52.601563c0 12.429687-10.113281 22.542968-22.542969 22.542968h-333.9375v15.03125h37.859375v55.105469h-22.542968c-15.191407 0-27.554688 12.363281-27.554688 27.554687v27.554688h174.414062v-15.03125h-159.382812v-12.523438c0-6.90625 5.617188-12.523437 12.523438-12.523437h200.390624c6.90625 0 12.523438 5.617187 12.523438 12.523437v12.523438h-51.027344v15.03125h66.058594v-27.554688c0-15.191406-12.363281-27.554687-27.554688-27.554687h-22.542968v-55.105469h140.773437c20.71875 0 37.574219-16.855468 37.574219-37.574218v-111.789063h-15.03125zm-178.347656 160.3125h-125.242188v-55.105469h125.242188zm0 0"/><path d="m257.683594 70.050781 7.515625-13.015625-45.269531-26.136718-100.695313 58.136718v116.277344l100.695313 58.136719 100.695312-58.136719v-116.277344l-42.410156-24.484375-7.515625 13.015625 27.382812 15.808594-78.152343 45.121094-78.152344-45.121094 78.152344-45.121094zm-30.238282 81.460938 78.152344-45.121094v90.242187l-78.152344 45.125zm-15.03125 0v90.246093l-78.152343-45.125v-90.242187zm0 0"/><path d="m97.691406 47.09375v-15.03125h-45.089844v15.03125h15.03125v199.386719h-15.03125v15.03125h45.089844v-15.03125h-15.03125v-199.386719zm0 0"/><path d="m233.457031 310.605469v45.089843h45.085938v-45.089843zm30.058594 30.058593h-15.03125v-15.027343h15.03125zm0 0"/><g fill="#fff"><path d="m469.417969 114.222656h-70.136719v-15.027344h70.136719zm-85.167969 0h-35.066406v-15.027344h35.066406zm0 0"/><path d="m469.417969 154.300781h-50.097657v-15.027343h50.097657zm-65.128907 0h-15.027343v-15.027343h15.027343zm-30.058593 0h-25.046875v-15.027343h25.046875zm0 0"/><path d="m439.359375 194.378906h-15.03125v-15.027344h15.03125zm-30.058594 0h-60.117187v-15.027344h60.117187zm0 0"/><path d="m193.878906 325.636719h15.027344v15.027343h-15.027344zm0 0"/><path d="m303.09375 325.636719h15.027344v15.027343h-15.027344zm0 0"/></g></svg>