<svg width="55" height="55" viewBox="0 0 55 55" fill="none" xmlns="http://www.w3.org/2000/svg">
<ellipse cx="27.5" cy="27.75" rx="22.5" ry="24.75" fill="white"/>
<path d="M27.5 0C12.3121 0 0 12.3121 0 27.5C0 42.6879 12.3121 55 27.5 55C42.6879 55 55 42.6879 55 27.5C55 12.3121 42.6879 0 27.5 0ZM39.8895 15.2778L27.4898 25.0805L14.6868 15.2778H39.8895ZM41.1652 39.7222H13.4106V19.4178L26.2042 29.1217C26.5472 29.384 27.0547 29.5151 27.4638 29.5151C27.8827 29.5151 28.2463 29.3776 28.5931 29.1037L41.1652 19.1028V39.7222Z" fill="black"/>
</svg>
