<svg width="55" height="55" viewBox="0 0 55 55" fill="none" xmlns="http://www.w3.org/2000/svg">
<ellipse cx="27.5" cy="27.75" rx="22.5" ry="24.75" fill="white"/>
<path d="M27.5 0C12.3145 0 0 12.3145 0 27.5C0 42.6855 12.3145 55 27.5 55C42.6855 55 55 42.6855 55 27.5C55 12.3145 42.6855 0 27.5 0ZM28.0828 43.5113C28.0824 43.5113 28.0833 43.5113 28.0828 43.5113H28.0761C25.3214 43.5101 22.6144 42.8194 20.2104 41.5085L11.4853 43.7967L13.8205 35.27C12.38 32.775 11.6221 29.9443 11.6234 27.0443C11.6272 17.9722 19.0107 10.5915 28.0828 10.5915C32.4855 10.5932 36.6183 12.3069 39.7255 15.4167C42.8332 18.5269 44.5436 22.661 44.5419 27.0573C44.5381 36.1298 37.1537 43.5113 28.0828 43.5113Z" fill="black"/>
<path d="M28.0883 13.3707C20.5424 13.3707 14.4055 19.505 14.4021 27.0456C14.4013 29.6296 15.1247 32.146 16.4939 34.3234L16.8191 34.8408L15.4369 39.8875L20.6145 38.5296L21.1143 38.8259C23.2145 40.0721 25.6222 40.7314 28.077 40.7322H28.0825C35.6225 40.7322 41.7594 34.5974 41.7628 27.0565C41.7641 23.402 40.3424 19.9662 37.7597 17.3814C35.1769 14.7965 31.7419 13.3719 28.0883 13.3707ZM36.1349 32.9252C35.7921 33.8853 34.1493 34.7619 33.3591 34.8802C32.6504 34.986 31.7541 35.03 30.7688 34.7174C30.1713 34.5277 29.4055 34.2747 28.424 33.8513C24.2988 32.0705 21.6044 27.9179 21.3988 27.6435C21.1932 27.3691 19.7195 25.4141 19.7195 23.3903C19.7195 21.3669 20.782 20.372 21.1588 19.9607C21.536 19.5491 21.9816 19.4463 22.2557 19.4463C22.5297 19.4463 22.8041 19.4488 23.0437 19.4606C23.2963 19.4732 23.6354 19.3645 23.9689 20.1664C24.3118 20.9896 25.1342 23.013 25.237 23.2187C25.3398 23.4247 25.4082 23.6647 25.2714 23.9391C25.1342 24.2136 24.6785 24.8056 24.2434 25.3453C24.0608 25.5714 23.8229 25.7729 24.0629 26.1845C24.3025 26.5957 25.1283 27.9423 26.3507 29.0324C27.9217 30.4331 29.2469 30.867 29.6581 31.073C30.0689 31.2786 30.3089 31.2442 30.549 30.9702C30.7886 30.6958 31.577 29.7697 31.851 29.3581C32.125 28.9464 32.3995 29.0152 32.7763 29.1525C33.1535 29.2892 35.1752 30.2842 35.5865 30.4898C35.9977 30.6958 36.2717 30.7986 36.3745 30.9702C36.4777 31.1419 36.4777 31.9647 36.1349 32.9252Z" fill="black"/>
</svg>
